<svg data-logo="logo" xmlns="http://www.w3.org/2000/svg" viewBox="0 0 235 43">
        <g style="opacity: 1;" id="logogram" transform="translate(0, 1) rotate(0)"><path d="M20.3018 10.27C20.3018 15.7928 15.8246 20.27 10.3018 20.27H0.301758V10.27C0.301758 4.74714 4.7789 0.269989 10.3018 0.269989C15.8246 0.269989 20.3018 4.74714 20.3018 10.27Z" fill="#17CF97"></path><path d="M20.3018 30.27C20.3018 24.7471 24.7789 20.27 30.3018 20.27H40.3018V30.27C40.3018 35.7928 35.8246 40.27 30.3018 40.27C24.7789 40.27 20.3018 35.7928 20.3018 30.27Z" fill="#17CF97"></path><path d="M0.301758 30.27C0.301758 35.7928 4.7789 40.27 10.3018 40.27H20.3018V30.27C20.3018 24.7471 15.8246 20.27 10.3018 20.27C4.7789 20.27 0.301758 24.7471 0.301758 30.27Z" fill="#17CF97"></path><path d="M40.3018 10.27C40.3018 4.74714 35.8246 0.269989 30.3018 0.269989H20.3018V10.27C20.3018 15.7928 24.7789 20.27 30.3018 20.27C35.8246 20.27 40.3018 15.7928 40.3018 10.27Z" fill="#17CF97"></path></g>
        <g style="opacity: 1;" id="logotype" transform="translate(47, 1.5)"><path fill="#ffffff" d="M12.60 33L6.84 33L15.54 7.54L22.37 7.54L31.29 33L25.50 33L21.42 20.71Q20.68 18.34 19.92 15.51Q19.16 12.68 18.32 9.33L18.32 9.33L19.45 9.33Q18.65 12.70 17.94 15.54Q17.23 18.39 16.53 20.71L16.53 20.71L12.60 33ZM25.86 27.09L12.27 27.09L12.27 23.00L25.86 23.00L25.86 27.09ZM37.17 33L32.04 33L32.04 13.89L37.00 13.89L37.00 17.23L37.20 17.23Q37.73 15.45 38.97 14.54Q40.21 13.64 41.82 13.64L41.82 13.64Q42.21 13.64 42.66 13.68Q43.12 13.72 43.48 13.81L43.48 13.81L43.48 18.39Q43.13 18.27 42.48 18.20Q41.84 18.13 41.25 18.13L41.25 18.13Q40.09 18.13 39.15 18.64Q38.21 19.14 37.69 20.04Q37.17 20.93 37.17 22.13L37.17 22.13L37.17 33ZM50.60 33.24L50.60 33.24Q48.62 33.24 47.13 32.38Q45.64 31.51 44.83 29.90Q44.02 28.28 44.02 26.04L44.02 26.04L44.02 13.89L49.15 13.89L49.15 25.16Q49.15 26.93 50.07 27.94Q50.99 28.95 52.60 28.95L52.60 28.95Q53.69 28.95 54.53 28.48Q55.37 28.01 55.84 27.11Q56.31 26.22 56.31 24.95L56.31 24.95L56.31 13.89L61.44 13.89L61.44 33L56.60 33L56.53 28.23L56.82 28.23Q56.07 30.64 54.52 31.94Q52.98 33.24 50.60 33.24ZM68.66 40.14L63.54 40.14L63.54 13.89L68.58 13.89L68.58 17.11L68.82 17.11Q69.18 16.35 69.83 15.55Q70.49 14.75 71.57 14.20Q72.64 13.65 74.27 13.65L74.27 13.65Q76.39 13.65 78.15 14.75Q79.91 15.84 80.96 18.03Q82.01 20.22 82.01 23.48L82.01 23.48Q82.01 26.66 80.98 28.86Q79.96 31.05 78.20 32.19Q76.44 33.32 74.23 33.32L74.23 33.32Q72.68 33.32 71.60 32.79Q70.53 32.27 69.85 31.49Q69.18 30.71 68.82 29.94L68.82 29.94L68.66 29.94L68.66 40.14ZM72.66 29.21L72.66 29.21Q73.99 29.21 74.91 28.47Q75.82 27.74 76.29 26.44Q76.76 25.14 76.76 23.46L76.76 23.46Q76.76 21.79 76.29 20.51Q75.82 19.23 74.92 18.49Q74.01 17.76 72.66 17.76L72.66 17.76Q71.35 17.76 70.42 18.47Q69.50 19.17 69.02 20.45Q68.54 21.72 68.54 23.46L68.54 23.46Q68.54 25.19 69.03 26.48Q69.52 27.77 70.44 28.49Q71.36 29.21 72.66 29.21ZM94.67 33L89.46 33L89.46 7.54L99.39 7.54Q102.29 7.54 104.32 8.56Q106.36 9.59 107.43 11.45Q108.49 13.31 108.49 15.82L108.49 15.82Q108.49 18.34 107.41 20.16Q106.32 21.98 104.26 22.94Q102.21 23.91 99.27 23.91L99.27 23.91L92.53 23.91L92.53 19.69L98.43 19.69Q100.04 19.69 101.06 19.25Q102.09 18.82 102.60 17.95Q103.11 17.09 103.11 15.82L103.11 15.82Q103.11 14.53 102.60 13.65Q102.09 12.77 101.05 12.30Q100.02 11.84 98.41 11.84L98.41 11.84L94.67 11.84L94.67 33ZM109.40 33L103.62 33L97.42 21.41L103.08 21.41L109.40 33ZM113.70 33.32L113.70 33.32Q112.46 33.32 111.60 32.48Q110.75 31.63 110.75 30.39L110.75 30.39Q110.75 29.14 111.60 28.30Q112.46 27.46 113.70 27.46L113.70 27.46Q114.95 27.46 115.81 28.30Q116.66 29.14 116.66 30.39L116.66 30.39Q116.66 31.63 115.81 32.48Q114.95 33.32 113.70 33.32ZM129.73 33L124.52 33L124.52 7.54L134.45 7.54Q137.35 7.54 139.39 8.64Q141.42 9.74 142.49 11.68Q143.56 13.62 143.56 16.13L143.56 16.13Q143.56 18.66 142.47 20.58Q141.39 22.51 139.33 23.59Q137.27 24.68 134.33 24.68L134.33 24.68L127.94 24.68L127.94 20.47L133.49 20.47Q135.10 20.47 136.13 19.92Q137.17 19.36 137.67 18.39Q138.17 17.41 138.17 16.13L138.17 16.13Q138.17 14.85 137.67 13.88Q137.17 12.90 136.12 12.37Q135.08 11.84 133.47 11.84L133.47 11.84L129.73 11.84L129.73 33ZM150.13 33.38L150.13 33.38Q148.32 33.38 146.88 32.74Q145.43 32.09 144.61 30.82Q143.78 29.55 143.78 27.65L143.78 27.65Q143.78 26.06 144.37 24.98Q144.96 23.91 145.97 23.26Q146.99 22.61 148.28 22.27Q149.57 21.93 150.99 21.79L150.99 21.79Q152.65 21.62 153.66 21.47Q154.68 21.33 155.15 21.01Q155.62 20.70 155.62 20.08L155.62 20.08L155.62 19.99Q155.62 19.17 155.28 18.61Q154.94 18.05 154.27 17.75Q153.60 17.45 152.63 17.45L152.63 17.45Q151.64 17.45 150.90 17.75Q150.17 18.05 149.71 18.54Q149.25 19.04 149.02 19.65L149.02 19.65L144.32 18.87Q144.82 17.21 145.96 16.05Q147.11 14.88 148.81 14.27Q150.51 13.65 152.63 13.65L152.63 13.65Q154.18 13.65 155.64 14.02Q157.09 14.39 158.24 15.16Q159.40 15.93 160.07 17.16Q160.75 18.39 160.75 20.13L160.75 20.13L160.75 33L155.89 33L155.89 30.35L155.72 30.35Q155.26 31.24 154.49 31.91Q153.72 32.59 152.64 32.98Q151.55 33.38 150.13 33.38ZM151.59 29.77L151.59 29.77Q152.80 29.77 153.71 29.29Q154.63 28.81 155.14 27.99Q155.65 27.17 155.65 26.16L155.65 26.16L155.65 24.10Q155.43 24.27 154.97 24.40Q154.51 24.54 153.95 24.64Q153.38 24.75 152.83 24.83Q152.29 24.92 151.86 24.97L151.86 24.97Q150.92 25.10 150.20 25.41Q149.48 25.72 149.09 26.22Q148.70 26.73 148.70 27.51L148.70 27.51Q148.70 28.25 149.07 28.75Q149.45 29.26 150.09 29.51Q150.73 29.77 151.59 29.77ZM169.43 33.24L169.43 33.24Q167.44 33.24 165.96 32.38Q164.47 31.51 163.66 29.90Q162.85 28.28 162.85 26.04L162.85 26.04L162.85 13.89L167.97 13.89L167.97 25.16Q167.97 26.93 168.90 27.94Q169.82 28.95 171.43 28.95L171.43 28.95Q172.52 28.95 173.36 28.48Q174.19 28.01 174.66 27.11Q175.13 26.22 175.13 24.95L175.13 24.95L175.13 13.89L180.26 13.89L180.26 33L175.43 33L175.36 28.23L175.65 28.23Q174.90 30.64 173.35 31.94Q171.80 33.24 169.43 33.24ZM182.36 7.54L187.49 7.54L187.49 33L182.36 33L182.36 7.54Z"></path></g>
        
      </svg>